<svg width="472" height="367" viewBox="0 0 472 367" fill="none" xmlns="http://www.w3.org/2000/svg">
<g clip-path="url(#clip0_158_2658)">
<path d="M340.501 67.9477H305.931V12.7793L340.501 23.813V67.9477Z" fill="#2F2E41"/>
<path d="M346.638 348.055L339.504 348.223L335.527 316.17L346.055 315.921L346.638 348.055Z" fill="#A0616A"/>
<path d="M322.162 362.939C322.162 364.144 323.017 365.122 324.072 365.122H338.233C338.233 365.122 339.626 359.52 345.308 357.109L345.7 365.122H353.005L352.12 352.237C352.12 352.237 354.074 345.344 350.016 341.821C345.957 338.297 349.244 338.788 349.244 338.788L347.648 330.813L336.609 332.112L336.528 344.629L331.171 357.055L323.314 360.936C322.615 361.282 322.162 362.069 322.162 362.939Z" fill="#2F2E41"/>
<path d="M310.075 348.055L302.941 348.223L298.964 316.17L309.493 315.921L310.075 348.055Z" fill="#A0616A"/>
<path d="M285.599 362.939C285.599 364.144 286.454 365.122 287.509 365.122H301.67C301.67 365.122 303.063 359.52 308.745 357.109L309.137 365.122H316.442L315.557 352.237C315.557 352.237 317.511 345.344 313.453 341.821C309.395 338.297 312.682 338.788 312.682 338.788L311.085 330.813L300.047 332.112L299.965 344.629L294.608 357.055L286.751 360.936C286.052 361.282 285.599 362.069 285.599 362.939Z" fill="#2F2E41"/>
<path d="M342.707 128.266L297.104 155.482L286.807 197.41L291.956 326.872H314.537L319.538 202.191L329.549 326.872H352.484L358.285 186.86C359.882 176.685 358.621 166.266 354.643 156.766L342.707 128.266Z" fill="#2F2E41"/>
<path d="M332.41 45.145L313.286 43.6738L308.137 53.9719L293.427 57.6498L289.749 103.256C297.024 122.159 301.591 140.223 297.104 155.482L353.005 152.539L343.672 127.301C343.672 127.301 343.443 117.967 348.592 105.462C353.74 92.9576 345.65 60.5921 345.65 60.5921L333.881 57.6498L332.41 45.145Z" fill="#EC5425"/>
<path d="M203.644 62.886C205.506 62.9437 207.227 62.576 208.58 61.9173L226.285 63.5876L226.833 55.1393L208.814 54.3546C207.504 53.6133 205.81 53.1398 203.948 53.0821C199.694 52.9503 196.177 55.0381 196.093 57.7453C196.009 60.4526 199.39 62.7541 203.644 62.886Z" fill="#A0616A"/>
<path d="M308.373 88.6768C308.373 88.6768 307.748 61.7632 301.845 57.7235C299.411 56.0576 261.982 55.6791 260.618 55.5378C252.209 54.6663 246.225 51.3275 239.145 50.9615C221.89 50.0697 213.167 54.2571 213.167 54.2571L212.863 62.8979L308.373 88.6768Z" fill="#EC5425"/>
<path d="M321.219 42.9769C329.652 42.9769 336.489 36.1397 336.489 27.7057C336.489 19.2717 329.652 12.4346 321.219 12.4346C312.785 12.4346 305.949 19.2717 305.949 27.7057C305.949 36.1397 312.785 42.9769 321.219 42.9769Z" fill="#A0616A"/>
<path d="M316.587 4.96573C313.303 7.0363 310.897 5.55389 308.551 6.59815C303.968 8.63844 296.229 22.9687 296.927 28.9682C297.915 37.4651 301.038 37.815 300.945 43.9111C300.795 53.7001 300.018 53.6595 302.022 57.0775C304.252 60.8791 316.88 59.8469 319.224 54.6917C319.687 53.6746 314.549 54.0746 308.873 40.7315C306.024 34.0359 307.894 27.9348 308.873 25.2844C309.102 24.6639 309.207 20.2586 309.696 20.7475C313.982 25.0343 316.385 21.9007 318.973 21.541C324.285 20.803 328.285 25.0888 329.897 23.5502C331.096 22.4052 329.567 19.378 330.148 19.1552C330.768 18.9177 332.822 22.2386 334.166 25.8105C335.033 28.1138 335.467 29.2655 335.422 30.5821C335.283 34.648 334.247 46.176 332.41 49.5585C328.443 56.863 333.438 59.6191 336.552 59.0866C339.068 58.6564 350.19 60.3503 350.798 59.121C351.341 58.0259 350.102 46.7616 348.8 36.2894C347.236 23.7025 340.966 12.1359 331.134 4.12323C330.557 3.65335 330.127 3.33095 329.897 3.20777C329.353 2.91599 323.738 0.000407882 319.601 2.32878C318.078 3.18594 318.326 3.86976 316.587 4.96573Z" fill="#2F2E41"/>
<path d="M125.837 359.977L117.364 359.976L113.334 327.294L125.838 327.295L125.837 359.977Z" fill="#FFB6B6"/>
<path d="M96.8089 359.784C96.5451 360.229 96.4059 361.663 96.4059 362.179C96.4059 363.768 97.6933 365.055 99.2815 365.055H125.52C126.603 365.055 127.481 364.177 127.481 363.093V362.001C127.481 362.001 128.779 358.717 126.107 354.67C126.107 354.67 122.786 357.839 117.823 352.876L116.359 350.225L105.765 357.973L99.8935 358.696C98.6088 358.854 97.4697 358.671 96.8089 359.784Z" fill="#2F2E41"/>
<path d="M161.558 359.977L153.085 359.976L149.055 327.294L161.56 327.295L161.558 359.977Z" fill="#FFB6B6"/>
<path d="M132.53 359.784C132.266 360.229 132.127 361.663 132.127 362.179C132.127 363.768 133.415 365.055 135.003 365.055H161.241C162.324 365.055 163.203 364.177 163.203 363.093V362.001C163.203 362.001 164.501 358.717 161.828 354.67C161.828 354.67 158.507 357.839 153.544 352.876L152.081 350.225L141.487 357.973L135.615 358.696C134.33 358.854 133.191 358.671 132.53 359.784Z" fill="#2F2E41"/>
<path d="M163.238 153.638L101.083 152.924L94.6533 193.649L110.371 334.399H130.976L135.733 203.294L144.306 336.9H165.404L175.026 184.718L163.238 153.638Z" fill="#2F2E41"/>
<path d="M426.742 354.363C428.218 354.455 429.033 352.621 427.917 351.552L427.806 351.111C427.82 351.075 427.835 351.04 427.85 351.005C429.342 347.445 434.401 347.47 435.881 351.035C437.194 354.198 438.867 357.368 439.278 360.713C439.463 362.189 439.38 363.694 439.052 365.143C442.13 358.419 443.75 351.077 443.75 343.694C443.75 341.839 443.648 339.984 443.441 338.133C443.27 336.62 443.035 335.115 442.73 333.625C441.083 325.567 437.516 317.893 432.371 311.483C429.897 310.131 427.835 308.018 426.589 305.484C426.141 304.571 425.791 303.588 425.625 302.586C425.906 302.623 426.686 298.336 426.474 298.073C426.866 297.478 427.568 297.182 427.996 296.601C430.127 293.712 433.062 294.217 434.595 298.143C437.869 299.795 437.9 302.535 435.892 305.171C434.614 306.847 434.438 309.116 433.317 310.911C433.432 311.059 433.552 311.202 433.667 311.35C435.783 314.063 437.613 316.98 439.155 320.044C438.719 316.638 439.363 312.536 440.46 309.891C441.709 306.878 444.05 304.341 446.111 301.736C448.587 298.607 453.665 299.972 454.101 303.939C454.106 303.977 454.11 304.015 454.114 304.054C453.808 304.227 453.508 304.41 453.215 304.604C451.543 305.709 452.121 308.301 454.101 308.606L454.146 308.613C454.035 309.716 453.846 310.81 453.569 311.885C456.214 322.113 450.504 325.838 442.352 326.006C442.172 326.098 441.996 326.19 441.816 326.278C442.642 328.604 443.302 330.99 443.791 333.408C444.23 335.544 444.534 337.704 444.705 339.873C444.917 342.609 444.899 345.36 444.668 348.092L444.682 347.995C445.268 344.986 446.901 342.176 449.273 340.228C452.807 337.326 457.798 336.257 461.61 333.924C463.445 332.8 465.796 334.252 465.476 336.379L465.461 336.481C464.893 336.712 464.339 336.98 463.804 337.279C463.498 337.452 463.198 337.636 462.905 337.83C461.233 338.935 461.811 341.526 463.791 341.832L463.836 341.839C463.869 341.843 463.896 341.848 463.929 341.853C462.955 344.165 461.598 346.31 459.9 348.161C458.247 357.09 451.144 357.937 443.547 355.337H443.542C442.712 358.955 441.498 362.489 439.938 365.858H427.064C427.018 365.715 426.977 365.567 426.935 365.424C428.126 365.498 429.325 365.429 430.497 365.212C429.542 364.04 428.587 362.859 427.632 361.686C427.609 361.663 427.59 361.64 427.572 361.617C427.087 361.017 426.598 360.422 426.114 359.822L426.113 359.821C426.083 357.98 426.304 356.144 426.742 354.363Z" fill="#F2F2F2"/>
<path d="M0 366.149C0 366.621 0.378667 366.999 0.85021 366.999H471.15C471.621 366.999 472 366.621 472 366.149C472 365.678 471.621 365.299 471.15 365.299H0.85021C0.378667 365.299 0 365.678 0 366.149Z" fill="#CCCCCC"/>
<path d="M142.163 46.8252H120.041L115.729 55.3988L94.6533 65.0779L102.155 120.416L96.4393 156.853H167.834L161.452 114.7L170.025 63.9725L146.449 54.6844L142.163 46.8252Z" fill="#E6E6E6"/>
<path d="M216.211 180.919C215.247 178.95 214.806 176.927 214.856 175.157L204.481 156.984L213.272 152.3L222.85 171.238C224.28 172.283 225.609 173.871 226.574 175.839C228.778 180.336 228.245 185.119 225.384 186.522C222.522 187.925 218.415 185.416 216.211 180.919Z" fill="#FFB6B6"/>
<path d="M147.821 61.5342C147.821 61.5342 154.82 54.332 162.672 59.3439C170.524 64.3558 199.167 115.643 199.167 115.643L221.262 159.735L205.666 167.001L186.851 124.78L147.336 82.2535L147.821 61.5342Z" fill="#E6E6E6"/>
<path d="M130.165 42.6463C141.197 42.6463 150.141 33.7023 150.141 22.6693C150.141 11.6364 141.197 2.69238 130.165 2.69238C119.133 2.69238 110.189 11.6364 110.189 22.6693C110.189 33.7023 119.133 42.6463 130.165 42.6463Z" fill="#FFB6B6"/>
<path d="M123.896 38.7472C123.988 40.7043 124.035 41.6829 123.734 41.8012C122.829 42.1572 111.175 35.2741 109.802 30.6921C109.162 28.555 109.703 28.5124 109.236 22.4326C108.789 16.6178 108.288 16.5714 108.88 15.1328C109.538 13.5338 111.549 11.5638 115.569 7.62362C117.089 6.13383 117.849 5.38893 118.329 5.00379C119.783 3.83652 125.201 -0.511966 130.169 0.0498426C132.251 0.285339 131.895 1.11675 139.674 5.33544C140.344 5.6988 141.242 6.17847 142.483 6.7292C145.501 8.06863 147.373 8.41587 148.359 8.7894C154.332 11.0532 152.579 23.6634 152.066 23.7357C151.879 23.762 151.828 22.1268 150.848 21.9916C149.966 21.8699 149.404 23.1116 148.602 23.1568C146.412 23.2802 148.844 21.1837 143.484 18.8552C141.4 17.95 147.198 22.0314 141.679 21.9652C133.048 21.8615 138.568 22.4109 135.29 24.1328C132.9 25.3886 123.283 18.4778 123.674 20.6861C123.95 22.2436 125.08 22.692 124.917 24.4369C124.759 26.1274 123.489 27.9494 122.368 28.0164C121.335 28.0781 120.769 26.6286 120.425 26.7673C120.05 26.9182 120.462 28.7371 121.27 30.6058C122.295 32.9781 122.908 32.9967 123.449 34.8212C123.76 35.8706 123.805 36.8295 123.896 38.7472Z" fill="#2F2E41"/>
<path d="M281.337 175.053L152.628 142.304C144.4 140.211 139.409 131.813 141.503 123.585L157.515 60.6468C159.608 52.4187 168.005 47.4277 176.233 49.5211L304.942 82.2702C313.17 84.3637 318.16 92.761 316.067 100.989L300.055 163.927C297.962 172.156 289.565 177.147 281.337 175.053Z" fill="white"/>
<path d="M281.337 175.053L152.628 142.304C148.514 141.257 145.209 138.634 142.849 135.157C139.414 130.097 138.518 123.727 140.026 117.8L153.453 65.0219C154.961 59.0952 158.792 53.9279 164.227 51.125C167.963 49.1985 172.119 48.4741 176.233 49.5208L304.942 82.2699C313.183 84.3667 318.164 92.7475 316.067 100.989L300.055 163.927C297.962 172.155 289.565 177.146 281.337 175.053ZM175.88 50.9056C168.404 49.0034 170.358 55.7746 168.456 63.2512C159.176 99.7281 178.37 137.44 213.328 151.387C232.198 158.915 247.894 165.069 247.894 165.069C274.035 171.72 300.618 155.92 307.269 129.778L314.682 100.637C316.585 93.16 312.066 85.5569 304.59 83.6547L175.88 50.9056Z" fill="#3F3D56"/>
<path d="M236.103 100.504C235.206 93.1299 228.502 87.8796 221.128 88.7765C213.825 89.665 208.609 96.2518 209.382 103.542L209.168 103.568L212.416 130.271L236.985 127.282C237.762 127.324 238.552 127.303 239.351 127.206C246.724 126.309 251.974 119.604 251.077 112.231C250.18 104.857 243.476 99.6066 236.103 100.504Z" fill="#EC5425"/>
<path d="M189.008 352.749C187.968 350.068 184.951 348.737 182.269 349.778C179.613 350.809 178.284 353.779 179.271 356.441L179.193 356.471L182.961 366.182L191.896 362.714C192.192 362.656 192.486 362.573 192.777 362.46C195.458 361.419 196.788 358.402 195.748 355.72C194.707 353.039 191.69 351.708 189.008 352.749Z" fill="#E6E6E6"/>
<path d="M389.048 352.749C388.007 350.068 384.99 348.737 382.309 349.778C379.653 350.809 378.324 353.779 379.31 356.441L379.232 356.471L383.001 366.182L391.936 362.714C392.231 362.656 392.526 362.573 392.816 362.46C395.497 361.419 396.828 358.402 395.787 355.72C394.746 353.039 391.729 351.708 389.048 352.749Z" fill="#E6E6E6"/>
<path d="M225.553 177.464C235.022 177.464 242.699 169.787 242.699 160.317C242.699 150.847 235.022 143.17 225.553 143.17C216.083 143.17 208.406 150.847 208.406 160.317C208.406 169.787 216.083 177.464 225.553 177.464Z" fill="#EC5425"/>
<path d="M147.608 90.7751C145.769 91.9671 143.812 92.6447 142.048 92.8056L125.239 105.268L119.543 97.0957L137.208 85.3336C138.076 83.7895 139.494 82.2808 141.333 81.0888C145.536 78.3656 150.348 78.3265 152.081 81.0013C153.814 83.6761 151.811 88.0519 147.608 90.7751Z" fill="#FFB6B6"/>
<path d="M108.238 61.6929C108.238 61.6929 95.3785 60.2639 93.2353 65.2652C91.092 70.2665 86.8054 120.279 86.8054 120.279L93.9497 132.425L140.801 96.9646L131.313 87.4762L111.234 96.9646L108.238 61.6929Z" fill="#E6E6E6"/>
<path d="M294.499 77.854C296.027 79.4258 297.784 80.5221 299.467 81.0718L313.079 96.9651L320.452 90.2664L305.85 74.8655C305.348 73.167 304.302 71.3803 302.774 69.8085C299.282 66.2176 294.6 65.1078 292.315 67.3295C290.03 69.5512 291.008 74.2631 294.499 77.854Z" fill="#A0616A"/>
<path d="M339.357 58.2705C339.357 58.2705 352.212 59.7415 353.188 65.0945C354.163 70.4476 347.205 120.159 347.205 120.159L337.535 130.409L299.757 85.4042L311.12 78.2672L328.582 91.9893L339.357 58.2705Z" fill="#EC5425"/>
<path d="M166.027 115.989C171.947 115.989 176.746 111.19 176.746 105.269C176.746 99.3484 171.947 94.5488 166.027 94.5488C160.107 94.5488 155.307 99.3484 155.307 105.269C155.307 111.19 160.107 115.989 166.027 115.989Z" fill="#E6E6E6"/>
</g>
<defs>
<clipPath id="clip0_158_2658">
<rect width="472" height="367" fill="white"/>
</clipPath>
</defs>
</svg>
